<svg width="32" height="30" viewBox="0 0 32 30" fill="none" xmlns="http://www.w3.org/2000/svg">
<path d="M16 8.75C16 7.42392 15.4381 6.15215 14.4379 5.21447C13.4377 4.27678 12.0812 3.75 10.6667 3.75H2.66669V22.5H12C13.0609 22.5 14.0783 22.8951 14.8284 23.5983C15.5786 24.3016 16 25.2554 16 26.25M16 8.75V26.25M16 8.75C16 7.42392 16.5619 6.15215 17.5621 5.21447C18.5623 4.27678 19.9189 3.75 21.3334 3.75H29.3334V22.5H20C18.9392 22.5 17.9217 22.8951 17.1716 23.5983C16.4214 24.3016 16 25.2554 16 26.25" stroke="white" stroke-width="4" stroke-linecap="round" stroke-linejoin="round"/>
</svg>
