<svg width="45" height="57" viewBox="0 0 45 57" fill="none" xmlns="http://www.w3.org/2000/svg">
<path d="M8.72856 17.2181C8.46137 20.0681 8.27387 25.1118 9.95668 27.2587C9.95668 27.2587 9.16449 21.7181 16.2661 14.7665C19.1254 11.9681 19.7864 8.16181 18.7879 5.30712C18.2207 3.68993 17.1848 2.35399 16.2848 1.42118C15.7598 0.872743 16.1629 -0.0319441 16.927 0.00086839C21.5489 0.207118 29.0395 1.49149 32.2223 9.47899C33.6192 12.9852 33.7223 16.6087 33.0567 20.2931C32.6348 22.6462 31.1348 27.8774 34.5567 28.5196C36.9989 28.979 38.1801 27.0384 38.7098 25.6415C38.9301 25.0602 39.6942 24.9149 40.1067 25.379C44.2317 30.0712 44.5832 35.5977 43.7301 40.3556C42.0801 49.5524 32.7661 56.2462 23.5129 56.2462C11.9536 56.2462 2.75199 49.6321 0.366054 37.6602C-0.594883 32.8274 -0.107382 23.2649 7.34574 16.5149C7.89887 16.0087 8.80356 16.4587 8.72856 17.2181Z" fill="url(#paint0_radial_95_222)"/>
<defs>
<radialGradient id="paint0_radial_95_222" cx="0" cy="0" r="1" gradientTransform="matrix(-33.0877 -0.1436 -0.235915 54.2902 21.2234 56.3919)" gradientUnits="userSpaceOnUse">
<stop offset="0.314" stop-color="#FF9800"/>
<stop offset="0.662" stop-color="#FF6D00"/>
<stop offset="0.972" stop-color="#F44336"/>
</radialGradient>
</defs>
</svg>
