<svg width="100" height="100" viewBox="0 0 100 100" fill="none" xmlns="http://www.w3.org/2000/svg">
<path d="M77.9297 75.0391C73.6133 67.5391 65.5078 62.5 56.25 62.5H43.75C34.4922 62.5 26.3867 67.5391 22.0703 75.0391C28.9453 82.6953 38.9062 87.5 50 87.5C61.0938 87.5 71.0547 82.6758 77.9297 75.0391ZM0 50C0 36.7392 5.26784 24.0215 14.6447 14.6447C24.0215 5.26784 36.7392 0 50 0C63.2608 0 75.9785 5.26784 85.3553 14.6447C94.7322 24.0215 100 36.7392 100 50C100 63.2608 94.7322 75.9785 85.3553 85.3553C75.9785 94.7322 63.2608 100 50 100C36.7392 100 24.0215 94.7322 14.6447 85.3553C5.26784 75.9785 0 63.2608 0 50ZM50 53.125C53.7296 53.125 57.3065 51.6434 59.9437 49.0062C62.5809 46.369 64.0625 42.7921 64.0625 39.0625C64.0625 35.3329 62.5809 31.756 59.9437 29.1188C57.3065 26.4816 53.7296 25 50 25C46.2704 25 42.6935 26.4816 40.0563 29.1188C37.4191 31.756 35.9375 35.3329 35.9375 39.0625C35.9375 42.7921 37.4191 46.369 40.0563 49.0062C42.6935 51.6434 46.2704 53.125 50 53.125Z" fill="white"/>
</svg>
